<svg width="100" height="100" viewBox="0 0 100 100" fill="none" xmlns="http://www.w3.org/2000/svg">
    <style>
        path { stroke: #000 }
        @media (prefers-color-scheme: dark) { path { stroke: #fff } }
    </style>
    <g stroke-width="7.5" stroke-linecap="round" stroke-linejoin="round">
        <path d="M78.5519 80.5745L86.4444 76.0695C87.8281 75.2715 88.9774 74.1241 89.777 72.7424C90.5766 71.3606 90.9984 69.7932 91 68.1972V31.7935C90.9984 30.1975 90.5766 28.63 89.777 27.2483C88.9774 25.8666 87.8281 24.7191 86.4444 23.9212L54.5556 5.71929C53.1705 4.92052 51.5993 4.5 50 4.5C48.4007 4.5 46.8295 4.92052 45.4444 5.71929L13.5556 23.9212C12.1719 24.7191 11.0226 25.8666 10.223 27.2483C9.42341 28.63 9.00164 30.1975 9 31.7935V68.1972C9.00164 69.7932 9.42341 71.3606 10.223 72.7424C11.0226 74.1241 12.1719 75.2715 13.5556 76.0695L23.3614 81.6666M66.5537 87.4229L54.5556 94.2714C53.1705 95.0702 51.5993 95.4907 50 95.4907C48.4007 95.4907 46.8295 95.0702 45.4444 94.2714L34.4029 87.969"/>
        <path d="M50 95.5V49.9953"/>
        <path d="M10.3667 27.243L18.84 32.1073C18.84 60.9165 31.4133 69.6534 31.4133 39.3253L50 49.9953C54.3733 74.5679 67.4933 76.206 65.8533 40.8944L89.6333 27.243"/>
        <path d="M78.3978 68.5612C79.0793 101.243 67.4756 100.705 67.4934 74.6415"/>
        <path d="M23.8238 69.6534C22.7886 98.4574 34.6933 102.262 34.6933 76.175"/>
    </g>
</svg>
