<svg width="256" height="256" viewBox="0 0 128 128" fill="none" xmlns="http://www.w3.org/2000/svg">
<path d="M64 128C99.4669 128 128 99.4669 128 64C128 28.5331 99.4669 0 64 0C28.5331 0 0 28.5331 0 64C0 99.4669 28.5331 128 64 128Z" fill="#2775CA"/>
<path d="M81.5999 74.1331C81.5999 64.8 75.9999 61.6 64.7999 60.2669C56.7999 59.2 55.1999 57.0669 55.1999 53.3331C55.1999 49.5994 57.8668 47.2 63.1999 47.2C67.9999 47.2 70.6668 48.8 71.9999 52.8C72.2668 53.6 73.0668 54.1331 73.8668 54.1331H78.1331C79.1999 54.1331 79.9999 53.3331 79.9999 52.2669V52C78.9331 46.1331 74.1331 41.6 67.9999 41.0669V34.6669C67.9999 33.6 67.1999 32.8 65.8668 32.5331H61.8668C60.7999 32.5331 59.9999 33.3331 59.7331 34.6669V40.8C51.7331 41.8669 46.6668 47.2 46.6668 53.8669C46.6668 62.6669 51.9999 66.1331 63.1999 67.4669C70.6668 68.8 73.0668 70.4 73.0668 74.6669C73.0668 78.9338 69.3331 81.8669 64.2668 81.8669C57.3331 81.8669 54.9331 78.9331 54.1331 74.9331C53.8668 73.8669 53.0668 73.3331 52.2668 73.3331H47.7331C46.6668 73.3331 45.8668 74.1331 45.8668 75.2V75.4669C46.9331 82.1331 51.1999 86.9331 59.9999 88.2669V94.6669C59.9999 95.7331 60.7999 96.5331 62.1331 96.8H66.1331C67.1999 96.8 67.9999 96 68.2668 94.6669V88.2669C76.2668 86.9331 81.5999 81.3331 81.5999 74.1331Z" fill="white"/>
<path d="M50.4 102.133C29.6 94.6669 18.9331 71.4669 26.6668 50.9331C30.6668 39.7331 39.4668 31.2 50.4 27.2C51.4668 26.6669 52 25.8669 52 24.5331V20.8C52 19.7331 51.4668 18.9331 50.4 18.6669C50.1331 18.6669 49.6 18.6669 49.3331 18.9331C24 26.9331 10.1331 53.8669 18.1331 79.2C22.9331 94.1331 34.4 105.6 49.3331 110.4C50.4 110.933 51.4668 110.4 51.7331 109.333C52 109.067 52 108.8 52 108.267V104.533C52 103.733 51.2 102.667 50.4 102.133ZM78.6668 18.9331C77.6 18.4 76.5331 18.9331 76.2668 20C76 20.2669 76 20.5331 76 21.0669V24.8C76 25.8669 76.8 26.9331 77.6 27.4669C98.4 34.9331 109.067 58.1331 101.333 78.6669C97.3331 89.8669 88.5331 98.4 77.6 102.4C76.5331 102.933 76 103.733 76 105.067V108.8C76 109.867 76.5331 110.667 77.6 110.933C77.8668 110.933 78.4 110.933 78.6668 110.667C104 102.667 117.867 75.7331 109.867 50.4C105.067 35.2 93.3331 23.7331 78.6668 18.9331Z" fill="white"/>
</svg>
