<svg width="256" height="256" viewBox="0 0 128 128" fill="none" xmlns="http://www.w3.org/2000/svg">
    <path d="M64 128C99.3462 128 128 99.3462 128 64C128 28.6538 99.3462 0 64 0C28.6538 0 0 28.6538 0 64C0 99.3462 28.6538 128 64 128Z" fill="#26A17B"/>
    <path d="M70.8219 69.9061V69.8958C70.3794 69.9267 68.0952 70.0604 63.0122 70.0604C58.9479 70.0604 56.0977 69.9473 55.0894 69.8958V69.9061C39.4598 69.2167 27.8019 66.5003 27.8019 63.2386C27.8019 59.9871 39.4701 57.2604 55.0894 56.571V67.2C56.108 67.272 59.0405 67.4469 63.0842 67.4469C67.9408 67.4469 70.3691 67.2411 70.8219 67.2V56.5813C86.4206 57.281 98.0476 59.9974 98.0476 63.2489C98.0476 66.5003 86.4103 69.2167 70.8219 69.9164M70.8219 55.4804V45.973H92.5839V31.4752H33.3376V45.973H55.0997V55.4804C37.4122 56.2932 24.1183 59.7916 24.1183 63.9897C24.1183 68.1878 37.4225 71.6862 55.0997 72.5093V102.986H70.8322V72.5093C88.4888 71.6965 101.762 68.1981 101.762 64C101.762 59.8122 88.4888 56.3035 70.8322 55.4907" fill="white"/>
</svg>
